<?xml version="1.0" encoding="iso-8859-1"?>
<!-- Generator: Adobe Illustrator 19.0.0, SVG Export Plug-In . SVG Version: 6.00 Build 0)  -->
<svg version="1.1" id="Capa_1" xmlns="http://www.w3.org/2000/svg" xmlns:xlink="http://www.w3.org/1999/xlink" x="0px" y="0px"
	 viewBox="0 0 512 512" style="enable-background:new 0 0 512 512;" xml:space="preserve">
<g>
	<g>
		<path d="M306.995,267.588l-42.073-42.073l15.503-15.504c3.28-3.28,4.252-8.17,2.477-12.456c-1.775-4.285-5.92-7.055-10.559-7.055
			h-62.414c-6.302,0-11.429,5.127-11.429,11.43v62.413c0,4.64,2.77,8.784,7.055,10.56c1.423,0.589,2.911,0.876,4.386,0.876
			c2.968,0,5.879-1.162,8.07-3.354l15.503-15.503l42.074,42.074c4.33,4.329,10.017,6.493,15.703,6.493
			c5.687,0,11.374-2.164,15.704-6.493c4.195-4.195,6.505-9.772,6.505-15.704S311.19,271.783,306.995,267.588z M228.21,241.012
			l-0.001,0.001l-14.709,14.71V205.5h50.223l-14.708,14.708c-0.001,0.001-0.002,0.002-0.004,0.003L228.21,241.012z M296.389,288.388
			c-2.81,2.812-7.382,2.812-10.194,0l-42.074-42.073l10.194-10.194l42.074,42.074C299.2,281.006,299.2,285.578,296.389,288.388z"/>
	</g>
</g>
<g>
	<g>
		<path d="M472.493,119.315c-2.214-3.499-6.845-4.542-10.348-2.328c-3.5,2.214-4.543,6.847-2.329,10.348
			c22.994,36.351,35.742,78.091,37.068,121.165h-45.025c-1.763-46.98-20.063-91.092-52.121-125.632l28.661-28.661l3.237-3.237
			c3.572,3.802,7.031,7.729,10.334,11.732c2.637,3.196,7.364,3.649,10.559,1.012c3.195-2.637,3.648-7.363,1.012-10.559
			c-5.193-6.293-10.75-12.409-16.517-18.179c0,0-0.001,0-0.001-0.001l-0.001-0.001C388.652,26.627,324.364,0,256,0
			S123.348,26.627,74.978,74.976c-0.004,0.004-0.008,0.009-0.012,0.013C26.623,123.356,0,187.64,0,256
			s26.623,132.644,74.966,181.011c0.004,0.004,0.008,0.009,0.012,0.013c5.43,5.428,11.174,10.676,17.073,15.599
			c3.18,2.654,7.91,2.229,10.564-0.952c2.654-3.181,2.228-7.91-0.953-10.563c-3.641-3.039-7.219-6.209-10.692-9.471l31.898-31.897
			c34.539,32.058,78.651,50.358,125.631,52.121v45.025c-43.294-1.334-85.224-14.199-121.704-37.411
			c-3.496-2.223-8.13-1.192-10.354,2.302c-2.224,3.495-1.193,8.131,2.301,10.354C159.738,498.213,207.201,512,256,512
			c68.364,0,132.652-26.627,181.022-74.976c0.004-0.004,0.008-0.009,0.012-0.013C485.377,388.644,512,324.36,512,256
			C512,207.439,498.338,160.175,472.493,119.315z M263.5,15.114c59.055,1.793,114.48,24.75,157.532,65.247l-31.901,31.9
			C354.592,80.203,310.48,61.903,263.5,60.141V15.114z M248.5,15.114v45.027c-46.98,1.763-91.092,20.063-125.631,52.121
			l-31.901-31.9C134.02,39.864,189.445,16.907,248.5,15.114z M80.362,90.969l3.236,3.236l28.664,28.664
			C80.203,157.408,61.903,201.52,60.141,248.5H15.114C16.908,189.444,39.865,134.019,80.362,90.969z M83.598,417.796l-3.236,3.236
			c-40.497-43.05-63.454-98.476-65.248-157.531h45.027V263.5c1.763,46.98,20.063,91.092,52.121,125.632L83.598,417.796z
			 M128.073,383.927c-0.003-0.002-0.005-0.005-0.008-0.007C93.846,349.694,75,304.266,75,256s18.846-93.694,53.065-127.919
			c0.003-0.003,0.005-0.005,0.008-0.007C162.299,93.849,207.731,75,256,75s93.701,18.849,127.927,53.073
			c0.003,0.002,0.005,0.005,0.008,0.007C418.154,162.306,437,207.734,437,256s-18.846,93.694-53.065,127.919
			c-0.003,0.003-0.005,0.005-0.008,0.007C349.701,418.151,304.269,437,256,437C207.731,437,162.299,418.151,128.073,383.927z
			 M263.5,496.885v-45.026c46.98-1.763,91.092-20.063,125.631-52.121l31.901,31.9C377.981,472.135,322.555,495.092,263.5,496.885z
			 M431.638,421.031l-3.236-3.236l-28.664-28.664c32.059-34.54,50.359-78.651,52.121-125.632h45.027v0.001
			C495.092,322.556,472.135,377.981,431.638,421.031z"/>
	</g>
</g>
<g>
	<g>
		<path d="M402.504,166.264c-1.337-2.329-3.818-3.765-6.503-3.765H192.333c-4.142,0-7.5,3.357-7.5,7.5s3.358,7.5,7.5,7.5h190.609
			L256,395.115L129.058,177.5h30.609c4.142,0,7.5-3.357,7.5-7.5s-3.358-7.5-7.5-7.5H116c-2.686,0-5.166,1.436-6.503,3.765
			c-1.338,2.329-1.328,5.194,0.025,7.515l140,240c1.344,2.304,3.811,3.721,6.479,3.721c2.668,0,5.133-1.418,6.478-3.722l140-240
			C403.832,171.459,403.842,168.593,402.504,166.264z"/>
	</g>
</g>
<g>
</g>
<g>
</g>
<g>
</g>
<g>
</g>
<g>
</g>
<g>
</g>
<g>
</g>
<g>
</g>
<g>
</g>
<g>
</g>
<g>
</g>
<g>
</g>
<g>
</g>
<g>
</g>
<g>
</g>
</svg>
