<svg height="512pt" viewBox="-60 0 511 512" width="512pt" xmlns="http://www.w3.org/2000/svg"><path d="m362.027344 204.375c-15.449219-31.351562-36.902344-64.34375-63.769532-98.0625-45.453124-57.046875-90.25-96.121094-92.136718-97.757812l-9.855469-8.554688-9.964844 8.433594c-1.886719 1.597656-46.742187 39.785156-92.234375 96.40625-26.890625 33.46875-48.363281 66.425781-63.824218 97.964844-19.734376 40.265624-29.742188 78.46875-29.742188 113.554687 0 107.875 87.765625 195.640625 195.640625 195.640625 107.878906 0 195.640625-87.765625 195.640625-195.640625 0-34.230469-10.011719-71.90625-29.753906-111.984375zm0 0" fill="#1b5c91"/><path d="m362.027344 204.375c-15.449219-31.351562-36.902344-64.34375-63.769532-98.0625-45.453124-57.046875-90.25-96.121094-92.136718-97.757812l-9.855469-8.554688-.125.101562v511.898438c107.878906 0 195.640625-87.765625 195.640625-195.640625 0-34.230469-10.011719-71.90625-29.753906-111.984375zm0 0" fill="#0e2e4b"/></svg>